<?xml version="1.0" encoding="utf-8"?>
<!-- Generator: Adobe Illustrator 16.0.0, SVG Export Plug-In . SVG Version: 6.00 Build 0)  -->
<!DOCTYPE svg PUBLIC "-//W3C//DTD SVG 1.1//EN" "http://www.w3.org/Graphics/SVG/1.1/DTD/svg11.dtd">
<svg version="1.1" id="Layer_1" xmlns="http://www.w3.org/2000/svg" xmlns:xlink="http://www.w3.org/1999/xlink" x="0px" y="0px"
	 width="316px" height="30px" viewBox="0 0 316 30" enable-background="new 0 0 316 30" xml:space="preserve">
<g>
	<path d="M75.709,15h0.01l8.702-11.318c0.514-0.643,0.932-1.405,1.254-2.042c0.308-0.61,0.465-1.236,0.478-1.64H64.931
		c0.021,0.386,0.136,0.818,0.357,1.305c0.23,0.508,0.533,1.234,0.905,1.684L75.709,15z"/>
	<path d="M60.742,26.233C60.896,24.947,61,23.34,61,21.411V3.571L57.871,0H40.47l10.032,21.411c1.195,2.533,2.173,4.443,2.932,5.729
		c0.705,1.196,1.399,2.143,2.083,2.86h4.433C60.309,28.722,60.595,27.465,60.742,26.233z"/>
	<path d="M85.539,26.233C85.693,24.947,86,23.34,86,21.411V8h-0.462l-9.986,13h-0.005L65.541,9H66v12.411
		c0,1.903-0.153,3.498,0.001,4.783c0.147,1.232,0.185,2.502,0.557,3.806H84.54C84.899,28.722,85.391,27.465,85.539,26.233z"/>
	<path d="M98.727,26.233C98.881,24.947,99,23.34,99,21.411V8.701c0-1.89-0.119-3.478-0.273-4.764
		C98.574,2.669,98.257,1.356,97.867,0h-5.283c-0.906,1.343-1.607,2.65-1.969,3.918C90.248,5.204,90,6.799,90,8.701v12.71
		c0,1.903,0.143,3.498,0.297,4.783c0.146,1.232,0.479,2.502,0.853,3.806h6.766C98.274,28.722,98.578,27.465,98.727,26.233z"/>
	<path d="M114.01,30h8.354c-0.627-0.192-1.364-0.435-2.364-0.738V23.61c1,1.157,2.049,2.006,3.039,2.546s2.16,0.81,3.345,0.81
		c1.492,0,2.771-0.427,3.755-1.282s1.497-1.926,1.497-3.211c0-1.119-0.323-2.109-0.993-2.971c-0.654-0.849-1.825-1.812-3.521-2.893
		c-2.441-1.543-4.155-2.977-5.145-4.302c-0.996-1.324-1.492-2.841-1.492-4.552c0-2.365,0.902-4.336,2.708-5.911
		c0.966-0.843,2.069-1.453,3.299-1.845h-11.98l-1.132,2.414l-1.177,2.487c-1.156-0.617-2.295-1.163-3.413-1.413
		C107.671,3.236,106.321,3,104.739,3H104v10h9.477l-1.389,2.508l-1.389,2.479c-0.978-0.591-1.993-1.192-3.047-1.437
		c-1.055-0.244-2.38-0.551-3.974-0.551H104v10.851c2-0.077,4.723-0.276,6.484-0.598c2.34-0.425,4.293-1.151,6.105-2.18l-1.315,3.047
		L114.01,30z"/>
	<path d="M156.63,26.233c0.154-1.286,0.37-2.894,0.37-4.822V3.571L153.646,0h-19.972C134.246,0.18,135,0.394,135,0.678v5.227
		c-1-0.964-1.635-1.665-2.535-2.102c-0.898-0.438-1.807-0.656-2.886-0.656c-1.259,0-2.262,0.383-3.09,1.147
		c-0.829,0.766-1.223,1.72-1.223,2.864c0,0.978,0.331,1.864,0.974,2.662c0.631,0.784,1.774,1.697,3.421,2.738
		c2.494,1.595,4.251,3.086,5.268,4.475c1.016,1.389,1.526,3.009,1.526,4.86c0,2.508-0.888,4.591-2.662,6.249
		c-0.882,0.824-1.876,1.442-2.983,1.857h24.915C156.084,28.722,156.482,27.465,156.63,26.233z"/>
	<path d="M47.949,27.342c-0.303-1.279-0.775-2.588-1.418-4.092L45.544,21H34.363l-0.144,0.359c-0.771,1.787-1.363,3.502-1.774,5.225
		c-0.384,1.605-0.5,2.704-0.369,3.416h16.118C48.303,29.395,48.227,28.518,47.949,27.342z"/>
	<path d="M24.682,30c0.768-0.799,1.513-1.791,2.236-2.995c0.771-1.286,1.736-3.15,2.894-5.594L39.844,0H20.392
		c-0.275,0.747-0.71,1.896-0.899,3.455C19.3,5.05,19,6.631,19,8.2v16.49c0,2.021,0.201,3.79-0.21,5.31H24.682z"/>
	<path d="M291.698,3.955c0.765,1.156,1.69,2.448,2.797,3.875L306,22.791V8.697c0-1.889-0.068-3.477-0.223-4.762
		c-0.152-1.268-0.416-2.58-0.806-3.936h-15.644C290.152,1.493,290.943,2.813,291.698,3.955z"/>
	<polygon points="43.907,17 39.975,8 39.955,8 36.021,17 	"/>
	<path d="M285.758,26.233c0.154-1.286,0.242-2.894,0.242-4.822V4.4c-1-0.9-1.277-1.64-1.766-2.218
		c-1.01-1.217-1.69-1.934-2.044-2.183h-14.042c2.53,0.669,4.746,1.99,6.632,3.995c2.828,3.009,4.242,6.783,4.242,11.321
		c0,4.385-1.507,8.033-4.522,10.945c-1.872,1.808-4.04,3.053-6.504,3.738h16.984C285.34,28.722,285.611,27.465,285.758,26.233z"/>
	<path d="M171.484,15h0.01l8.702-11.318c0.514-0.643,0.932-1.405,1.254-2.042c0.308-0.61,0.465-1.236,0.478-1.64h-21.222
		c0.021,0.386,0.136,0.818,0.357,1.305c0.23,0.508,0.533,1.234,0.905,1.684L171.484,15z"/>
	<path d="M253.255,14.082c0,3.69,1.032,6.761,3.096,9.21c2.064,2.449,4.651,3.674,7.764,3.674c2.841,0,5.204-1.038,7.088-3.114
		c1.884-2.077,2.825-4.678,2.825-7.802c0-3.703-1.031-6.779-3.096-9.229c-2.063-2.449-4.657-3.674-7.782-3.674
		c-2.829,0-5.185,1.038-7.068,3.115C254.197,8.338,253.255,10.945,253.255,14.082z"/>
	<path d="M303.811,27.844c-0.675-1.112-1.484-2.253-2.396-3.424L290,9.505V21.4c0,1.905,0.092,3.502,0.246,4.789
		c0.148,1.234,0.431,2.506,0.803,3.811h13.826C304.759,29.545,304.413,28.837,303.811,27.844z"/>
	<path d="M15,22.954V6.367V3.224c-1,0.026-2.027,0.084-2.812,0.174C11.211,3.5,9.931,3.719,8.439,4.053L9.878,0H0v30h13.713
		C14.441,28.021,15,25.68,15,22.954z"/>
	<path d="M311.098,0c-0.378,1.33-0.68,2.631-0.832,3.898C310.111,5.185,310,6.785,310,8.701v14.215c0,1.479,0.131,2.919,0.324,4.32
		c0.176,1.282,0.427,2.191,0.679,2.764H316V0H311.098z"/>
	<path d="M252.503,26.127c-2.829-3.002-4.243-6.772-4.243-11.312c0-4.397,1.508-8.053,4.523-10.965
		c1.991-1.923,4.321-3.197,6.978-3.851h-18.21C242.122,0.18,243,0.394,243,0.678v5.227c-1-0.964-1.697-1.665-2.597-2.102
		c-0.899-0.438-1.838-0.656-2.917-0.656c-1.259,0-2.277,0.383-3.105,1.147c-0.829,0.766-1.23,1.72-1.23,2.864
		c0,0.978,0.328,1.864,0.971,2.662c0.629,0.784,1.771,1.697,3.418,2.738c2.494,1.595,4.25,3.086,5.267,4.475
		c1.016,1.389,1.525,3.009,1.525,4.86c0,2.508-0.887,4.591-2.661,6.249c-0.882,0.824-1.877,1.442-2.984,1.857h19.976
		C256.326,29.297,254.273,28.007,252.503,26.127z"/>
	<path d="M180.926,26.233C181.08,24.947,181,23.34,181,21.411V8h0.313l-9.986,13h-0.005L161.316,9H161v12.411
		c0,1.903,0.234,3.498,0.389,4.783c0.147,1.232,0.572,2.502,0.944,3.806h17.982C180.675,28.722,180.779,27.465,180.926,26.233z"/>
	<path d="M193.988,26.233c0.154-1.273,0.012-2.88,0.012-4.822V8.701c0-1.89,0.143-3.478-0.012-4.764
		c-0.152-1.269-0.207-2.581-0.597-3.938h-5.032c-0.906,1.343-1.496,2.65-1.857,3.918C186.137,5.204,186,6.799,186,8.701v12.71
		c0,1.903,0.029,3.498,0.184,4.783c0.148,1.232,0.368,2.502,0.741,3.806h6.515C193.798,28.722,193.84,27.465,193.988,26.233z"/>
	<path d="M207,29.262V23.61c1,1.157,1.701,2.006,2.691,2.546s1.986,0.81,3.171,0.81c1.492,0,2.684-0.427,3.668-1.282
		s1.453-1.926,1.453-3.211c0-1.119-0.345-2.109-1.014-2.971c-0.655-0.849-1.837-1.812-3.532-2.893
		c-2.441-1.543-4.16-2.977-5.149-4.302c-0.996-1.324-1.495-2.841-1.495-4.552c0-2.365,0.901-4.336,2.707-5.911
		c0.966-0.843,2.067-1.453,3.297-1.845h-12.74c-0.377,1.33-0.658,2.627-0.811,3.889C199.092,5.169,199,6.772,199,8.701v12.71
		c0,1.903,0.092,3.498,0.246,4.783c0.148,1.232,0.429,2.502,0.802,3.806h8.621C208.042,29.808,207,29.565,207,29.262z"/>
	<path d="M228,29.262V23.61c1,1.157,1.987,2.006,2.978,2.546s2.128,0.81,3.313,0.81c1.492,0,2.755-0.427,3.739-1.282
		s1.489-1.926,1.489-3.211c0-1.119-0.328-2.109-0.997-2.971c-0.655-0.849-1.827-1.812-3.522-2.893
		c-2.441-1.543-4.156-2.977-5.146-4.302c-0.996-1.324-1.493-2.841-1.493-4.552c0-2.365,0.903-4.336,2.709-5.911
		c0.966-0.843,2.068-1.453,3.298-1.845h-14.389C220.551,0.18,221,0.394,222,0.678v5.227c-1-0.964-1.982-1.665-2.883-2.102
		c-0.898-0.438-1.98-0.656-3.06-0.656c-1.259,0-2.349,0.383-3.177,1.147c-0.829,0.766-1.266,1.72-1.266,2.864
		c0,0.978,0.31,1.864,0.952,2.662c0.63,0.784,1.763,1.697,3.409,2.738c2.494,1.595,4.246,3.086,5.263,4.475
		c1.016,1.389,1.522,3.009,1.522,4.86c0,2.508-0.888,4.591-2.662,6.249c-0.882,0.824-1.878,1.442-2.985,1.857h13.126
		C229.613,29.808,229,29.565,228,29.262z"/>
</g>
</svg>
